<svg version="1.1" id="cart" xmlns="http://www.w3.org/2000/svg" xmlns:xlink="http://www.w3.org/1999/xlink" x="0px" y="0px" viewBox="0 0 24 24" style="enable-background:new 0 0 24 24;" xml:space="preserve" width="24" height="24" fill="#212426">
	<path id="XMLID_16_" d="M16,15H6c-0.4,0-0.8-0.3-1-0.7l-2-7C3,7,3,6.6,3.2,6.4S3.7,6,4,6h9c0.6,0,1,0.4,1,1s-0.4,1-1,1H5.3l1.4,5h8.4L17,2.8C17.1,2.3,17.5,2,18,2h2c0.6,0,1,0.4,1,1s-0.4,1-1,1h-1.2L17,14.2C16.9,14.7,16.5,15,16,15z"/>
	<path id="XMLID_18_" d="M6,18c0.6,0,1,0.5,1,1s-0.4,1-1,1s-1-0.5-1-1S5.4,18,6,18 M6,16c-1.7,0-3,1.3-3,3s1.3,3,3,3s3-1.3,3-3S7.7,16,6,16L6,16z"/>
	<path id="XMLID_17_" d="M16,18c0.5,0,1,0.5,1,1s-0.5,1-1,1c-0.6,0-1-0.5-1-1S15.4,18,16,18 M16,16c-1.7,0-3,1.3-3,3s1.3,3,3,3s3-1.3,3-3S17.7,16,16,16L16,16z"/>
</svg>