<svg version="1.1" xmlns="http://www.w3.org/2000/svg" xmlns:xlink="http://www.w3.org/1999/xlink" x="0px" y="0px" viewBox="0 0 24 24" style="enable-background:new 0 0 24 24;" xml:space="preserve" width="24" height="24" fill="#212426">
	<path id="XMLID_3_" d="M16,15H6c-0.4,0-0.8-0.3-1-0.7l-2-7C2.9,6.7,3.2,6.2,3.7,6C4.3,5.9,4.8,6.2,5,6.7L6.8,13h8.4L17,2.8C17.1,2.3,17.5,2,18,2h2c0.6,0,1,0.4,1,1s-0.4,1-1,1h-1.2L17,14.2C16.9,14.7,16.5,15,16,15z"/>
	<path id="XMLID_5_" d="M6,18c0.6,0,1,0.4,1,1s-0.4,1-1,1s-1-0.4-1-1S5.4,18,6,18 M6,16c-1.7,0-3,1.3-3,3s1.3,3,3,3s3-1.3,3-3S7.7,16,6,16L6,16z"/>
	<path id="XMLID_6_" d="M16,18c0.6,0,1,0.4,1,1s-0.4,1-1,1c-0.6,0-1-0.4-1-1S15.4,18,16,18 M16,16c-1.7,0-3,1.3-3,3s1.3,3,3,3s3-1.3,3-3S17.7,16,16,16L16,16z"/>
	<path id="XMLID_7_" d="M8,12c-0.4,0-0.8-0.3-1-0.7l-2-7C4.9,3.7,5.2,3.2,5.7,3C6.3,2.9,6.8,3.2,7,3.7l2,7c0.2,0.5-0.2,1.1-0.7,1.2C8.2,12,8.1,12,8,12z"/>
	<path id="XMLID_8_" d="M14,12h-3c-0.6,0-1-0.4-1-1V8c0-0.6,0.4-1,1-1h3c0.6,0,1,0.4,1,1v3C15,11.6,14.6,12,14,12z M12,10h1V9h-1V10z"/>
	<path id="XMLID_9_" d="M15,6H9C8.4,6,8,5.6,8,5s0.4-1,1-1h6c0.6,0,1,0.4,1,1S15.6,6,15,6z"/>
</svg>