<svg version="1.1" id="Layer_1" xmlns="http://www.w3.org/2000/svg" xmlns:xlink="http://www.w3.org/1999/xlink" x="0px" y="0px" viewBox="0 0 80 80" style="enable-background:new 0 0 80 80;" xml:space="preserve" width="80" height="80" fill="#ff7919">
	<path id="XMLID_142_" d="M10.3,24l-4.5,4.5c-1.6,1.6-1.6,4.1,0,5.7c0.8,0.8,1.8,1.2,2.8,1.2c1,0,2-0.4,2.8-1.2l4.5-4.5V36c0,2.2,1.8,4,4,4c2.2,0,4-1.8,4-4v-6.3l4.5,4.5c0.8,0.8,1.8,1.2,2.8,1.2c1,0,2-0.4,2.8-1.2c1.6-1.6,1.6-4.1,0-5.7L29.7,24H36c2.2,0,4-1.8,4-4c0-2.2-1.8-4-4-4h-6.3l4.5-4.5c1.6-1.6,1.6-4.1,0-5.7c-1.6-1.6-4.1-1.6-5.7,0L24,10.3V4c0-2.2-1.8-4-4-4c-2.2,0-4,1.8-4,4v6.3l-4.5-4.5c-1.6-1.6-4.1-1.6-5.7,0c-1.6,1.6-1.6,4.1,0,5.7l4.5,4.5H4c-2.2,0-4,1.8-4,4c0,2.2,1.8,4,4,4H10.3zM20,16c2.2,0,4,1.8,4,4c0,2.2-1.8,4-4,4c-2.2,0-4-1.8-4-4C16,17.8,17.8,16,20,16z M78,56h-2.5c-0.4-1.5-1-2.8-1.7-4.1l1.8-1.8c0.8-0.8,0.8-2.1,0-2.8l-2.8-2.8c-0.8-0.8-2-0.8-2.8,0l-1.8,1.8c-1.3-0.8-2.7-1.3-4.1-1.7V42c0-1.1-0.9-2-2-2h-4c-1.1,0-2,0.9-2,2v2.5c-1.4,0.4-2.8,1-4.1,1.7l-1.8-1.8c-0.8-0.8-2.1-0.8-2.8,0l-2.8,2.8c-0.8,0.8-0.8,2,0,2.8l1.8,1.8c-0.8,1.2-1.3,2.6-1.7,4.1H42c-1.1,0-2,0.9-2,2v4c0,1.1,0.9,2,2,2h2.5c0.4,1.5,1,2.8,1.7,4.1l-1.8,1.8c-0.8,0.8-0.8,2.1,0,2.8l2.8,2.8c0.8,0.8,2,0.8,2.8,0l1.8-1.8h0c1.3,0.8,2.6,1.3,4.1,1.7V78c0,1.1,0.9,2,2,2h4c1.1,0,2-0.9,2-2v-2.5c1.5-0.4,2.8-1,4.1-1.7l1.8,1.8c0.8,0.8,2.1,0.8,2.8,0l2.8-2.8c0.8-0.8,0.8-2,0-2.8l-1.8-1.8c0.8-1.3,1.3-2.7,1.7-4.1H78c1.1,0,2-0.9,2-2v-4C80,56.9,79.1,56,78,56z M60,64c-2.2,0-4-1.8-4-4c0-2.2,1.8-4,4-4c2.2,0,4,1.8,4,4C64,62.2,62.2,64,60,64z M74.8,5.2c-1.6-1.6-4.1-1.6-5.7,0l-64,64c-1.6,1.6-1.6,4.1,0,5.7C6,75.6,7,76,8,76c1,0,2-0.4,2.8-1.2l64-64C76.4,9.3,76.4,6.7,74.8,5.2z"/>
</svg>